<svg version="1.1" id="el_HED0IAuMf" xmlns="http://www.w3.org/2000/svg" xmlns:xlink="http://www.w3.org/1999/xlink" x="0px" y="0px" viewBox="0 0 319 123" style="enable-background:new 0 0 319.95 123.32;" xml:space="preserve"><style>@-webkit-keyframes kf_el_mgdktURTP1_an_5lP37MmE5{
0%{-webkit-transform: translate(0px, 11.099997520446777px) translate(0px, -11.099997520446777px) translate(0px, 0px);transform: translate(0px, 11.099997520446777px) translate(0px, -11.099997520446777px) translate(0px, 0px);}
100%{-webkit-transform: translate(0px, 11.099997520446777px) translate(0px, -11.099997520446777px) translate(-319px, 0px);transform: translate(0px, 11.099997520446777px) translate(0px, -11.099997520446777px) translate(-319px, 0px);}}
@keyframes kf_el_mgdktURTP1_an_5lP37MmE5{
0%{-webkit-transform: translate(0px, 11.099997520446777px) translate(0px, -11.099997520446777px) translate(0px, 0px);transform: translate(0px, 11.099997520446777px) translate(0px, -11.099997520446777px) translate(0px, 0px);}
100%{-webkit-transform: translate(0px, 11.099997520446777px) translate(0px, -11.099997520446777px) translate(-319px, 0px);transform: translate(0px, 11.099997520446777px) translate(0px, -11.099997520446777px) translate(-319px, 0px);}}
#el_HED0IAuMf *{-webkit-animation-duration: 30s;animation-duration: 30s;-webkit-animation-iteration-count: infinite;animation-iteration-count: infinite;-webkit-animation-timing-function: cubic-bezier(0, 0, 1, 1);animation-timing-function: cubic-bezier(0, 0, 1, 1);}
#el_Mn1mgVQG-j{fill: #0052A5;}
#el_mgdktURTP1_an_5lP37MmE5{-webkit-animation-fill-mode: backwards;animation-fill-mode: backwards;-webkit-transform: translate(0px, 11.099997520446777px) translate(0px, -11.099997520446777px) translate(0px, 0px);transform: translate(0px, 11.099997520446777px) translate(0px, -11.099997520446777px) translate(0px, 0px);-webkit-animation-name: kf_el_mgdktURTP1_an_5lP37MmE5;animation-name: kf_el_mgdktURTP1_an_5lP37MmE5;-webkit-animation-timing-function: cubic-bezier(0, 0, 1, 1);animation-timing-function: cubic-bezier(0, 0, 1, 1);}</style>

<g id="el_mgdktURTP1_an_5lP37MmE5" data-animator-group="true" data-animator-type="0"><g id="el_mgdktURTP1">
	<path d="M635.85,40.45l-0.13-0.13v-5.59c0.08-0.03,0.16-0.07,0.22-0.13l0.7,0.82c0,0,0.56,0.07,0.76-0.2l0,0&#10;&#9;&#9;c0,0,0-0.01,0.01-0.01c0,0,0.01-0.01,0.01-0.01l0,0c0.14-0.3-0.2-0.76-0.2-0.76l-1.07-0.2c0.01-0.04,0.01-0.08,0.01-0.12&#10;&#9;&#9;c0-0.05-0.01-0.09-0.02-0.14l1.06-0.19c0,0,0.34-0.46,0.2-0.76l0,0c0,0-0.01-0.01-0.01-0.01c0,0,0-0.01,0-0.01l-0.01,0&#10;&#9;&#9;c-0.19-0.27-0.76-0.2-0.76-0.2l-0.71,0.83c-0.06-0.05-0.14-0.1-0.22-0.12l0.36-1.02c0,0-0.22-0.52-0.56-0.55v-0.01&#10;&#9;&#9;c-0.01,0-0.01,0-0.01,0c-0.01,0-0.01,0-0.01,0v0.01c-0.33,0.03-0.56,0.55-0.56,0.55l0.37,1.03c-0.08,0.03-0.16,0.07-0.22,0.13&#10;&#9;&#9;l-0.7-0.82c0,0-0.56-0.07-0.76,0.2l0,0c0,0,0,0.01-0.01,0.01c0,0-0.01,0.01-0.01,0.01l0,0c-0.14,0.3,0.2,0.76,0.2,0.76l1.07,0.2&#10;&#9;&#9;c-0.01,0.04-0.01,0.08-0.01,0.12c0,0.05,0.01,0.09,0.02,0.14l-1.06,0.19c0,0-0.34,0.46-0.2,0.76l0,0c0,0,0.01,0.01,0.01,0.01&#10;&#9;&#9;c0,0,0,0.01,0.01,0.01l0.01,0c0.19,0.27,0.76,0.2,0.76,0.2l0.71-0.83c0.06,0.05,0.13,0.09,0.21,0.12v5.16L618.74,22.9&#10;&#9;&#9;c0,0-0.89-1.1-4.22-1.12c-0.13,0-0.24,0-0.36,0.01v-2.64c0.08-0.03,0.16-0.07,0.22-0.13l0.7,0.82c0,0,0.56,0.07,0.76-0.2l0.01,0&#10;&#9;&#9;c0,0,0-0.01,0.01-0.01c0,0,0.01-0.01,0.01-0.01l-0.01,0c0.14-0.3-0.2-0.76-0.2-0.76l-1.07-0.2c0.01-0.04,0.01-0.08,0.01-0.12&#10;&#9;&#9;c0-0.05-0.01-0.09-0.02-0.14l1.06-0.19c0,0,0.34-0.46,0.2-0.76l0,0c0,0-0.01-0.01-0.01-0.01c0,0,0-0.01-0.01-0.01l0,0&#10;&#9;&#9;c-0.19-0.27-0.76-0.2-0.76-0.2l-0.71,0.83c-0.06-0.05-0.14-0.1-0.22-0.12l0.36-1.02c0,0-0.22-0.52-0.56-0.55v-0.01&#10;&#9;&#9;c-0.01,0-0.01,0-0.01,0c-0.01,0-0.01,0-0.01,0v0.01c-0.33,0.03-0.56,0.55-0.56,0.55l0.37,1.03c-0.08,0.03-0.16,0.07-0.22,0.13&#10;&#9;&#9;l-0.7-0.82c0,0-0.56-0.07-0.76,0.2l0,0c0,0,0,0.01-0.01,0.01c0,0-0.01,0.01-0.01,0.01l0,0c-0.14,0.3,0.2,0.76,0.2,0.76l1.07,0.2&#10;&#9;&#9;c-0.01,0.04-0.01,0.08-0.01,0.12c0,0.05,0.01,0.09,0.02,0.14l-1.06,0.19c0,0-0.34,0.46-0.2,0.76l0,0c0,0,0.01,0.01,0.01,0.01&#10;&#9;&#9;c0,0,0,0.01,0.01,0.01l0,0c0.19,0.27,0.76,0.2,0.76,0.2l0.71-0.83c0.06,0.05,0.13,0.09,0.21,0.12v2.65&#10;&#9;&#9;c-2.67,0.15-3.27,1.15-3.27,1.15s-19.08,19.51-20.5,20.96s-2.65,1.75-5.36,2.33c-2.71,0.58-5.33-2.09-5.33-2.09&#10;&#9;&#9;s-4.1-4.33-8.09-7.85v-4.21c0.08-0.03,0.16-0.07,0.22-0.13l0.7,0.82c0,0,0.56,0.07,0.76-0.2l0,0c0,0,0-0.01,0.01-0.01&#10;&#9;&#9;c0,0,0.01-0.01,0.01-0.01l0,0c0.14-0.3-0.2-0.76-0.2-0.76l-1.07-0.2c0.01-0.04,0.01-0.08,0.01-0.12c0-0.05-0.01-0.09-0.02-0.14&#10;&#9;&#9;l1.06-0.19c0,0,0.34-0.46,0.2-0.76l0,0c0,0-0.01-0.01-0.01-0.01c0,0,0-0.01-0.01-0.01l0,0c-0.19-0.27-0.76-0.2-0.76-0.2l-0.71,0.83&#10;&#9;&#9;c-0.06-0.05-0.14-0.1-0.22-0.12l0.36-1.02c0,0-0.22-0.52-0.56-0.55v-0.01c-0.01,0-0.01,0-0.01,0c-0.01,0-0.01,0-0.01,0v0.01&#10;&#9;&#9;c-0.33,0.03-0.56,0.55-0.56,0.55l0.37,1.03c-0.08,0.03-0.16,0.07-0.22,0.13l-0.7-0.82c0,0-0.56-0.07-0.76,0.2l0,0&#10;&#9;&#9;c0,0,0,0.01-0.01,0.01c0,0-0.01,0.01-0.01,0.01l0.01,0c-0.14,0.3,0.2,0.76,0.2,0.76l1.07,0.2c-0.01,0.04-0.01,0.08-0.01,0.12&#10;&#9;&#9;c0,0.05,0.01,0.09,0.02,0.14l-1.06,0.19c0,0-0.34,0.46-0.2,0.76l0,0c0,0,0.01,0.01,0.01,0.01c0,0,0,0.01,0.01,0.01l0,0&#10;&#9;&#9;c0.19,0.27,0.76,0.2,0.76,0.2l0.71-0.83c0.06,0.05,0.13,0.09,0.21,0.12v3.84c-0.91-0.79-1.81-1.53-2.64-2.16v-5.35&#10;&#9;&#9;c0.08-0.03,0.16-0.07,0.22-0.13l0.7,0.82c0,0,0.56,0.07,0.76-0.2l0,0c0,0,0-0.01,0.01-0.01c0,0,0.01-0.01,0.01-0.01l0,0&#10;&#9;&#9;c0.14-0.3-0.2-0.76-0.2-0.76l-1.07-0.2c0.01-0.04,0.01-0.08,0.01-0.12c0-0.05-0.01-0.09-0.02-0.14l1.06-0.19&#10;&#9;&#9;c0,0,0.34-0.46,0.2-0.76l0,0c0,0-0.01-0.01-0.01-0.01c0,0,0-0.01,0-0.01l-0.01,0c-0.19-0.27-0.76-0.2-0.76-0.2l-0.71,0.83&#10;&#9;&#9;c-0.06-0.05-0.14-0.1-0.22-0.12l0.36-1.02c0,0-0.22-0.52-0.56-0.55v-0.01c-0.01,0-0.01,0-0.01,0c-0.01,0-0.01,0-0.01,0v0.01&#10;&#9;&#9;c-0.33,0.03-0.56,0.55-0.56,0.55l0.37,1.03c-0.08,0.03-0.16,0.07-0.22,0.13l-0.7-0.82c0,0-0.56-0.07-0.76,0.2l0,0&#10;&#9;&#9;c0,0,0,0.01-0.01,0.01c0,0-0.01,0.01-0.01,0.01l0,0c-0.14,0.3,0.2,0.76,0.2,0.76l1.07,0.2c-0.01,0.04-0.01,0.08-0.01,0.12&#10;&#9;&#9;c0,0.05,0.01,0.09,0.02,0.14l-1.06,0.19c0,0-0.34,0.46-0.2,0.76l0,0c0,0,0.01,0.01,0.01,0.01c0,0,0,0.01,0,0.01l0,0&#10;&#9;&#9;c0.19,0.27,0.76,0.2,0.76,0.2l0.71-0.83c0.06,0.05,0.13,0.09,0.21,0.12v5.04c-1.33-0.96-2.46-1.57-3.16-1.57&#10;&#9;&#9;c-3.14,0-4.61,1.58-4.61,1.58s-4.38,4.63-7.4,7.76c-0.19,0.19-0.37,0.37-0.56,0.54v-3.93c0.08-0.03,0.16-0.07,0.22-0.13l0.7,0.82&#10;&#9;&#9;c0,0,0.56,0.07,0.76-0.2l0,0c0,0,0-0.01,0.01-0.01c0,0,0.01-0.01,0.01-0.01l0,0c0.14-0.3-0.2-0.76-0.2-0.76l-1.07-0.2&#10;&#9;&#9;c0.01-0.04,0.01-0.08,0.01-0.12c0-0.05-0.01-0.09-0.02-0.14l1.06-0.19c0,0,0.34-0.46,0.2-0.76l0,0c0,0-0.01-0.01-0.01-0.01&#10;&#9;&#9;c0,0,0-0.01-0.01-0.01l0,0c-0.19-0.27-0.76-0.2-0.76-0.2l-0.71,0.83c-0.06-0.05-0.14-0.1-0.22-0.12l0.36-1.02&#10;&#9;&#9;c0,0-0.22-0.52-0.56-0.55v-0.01c-0.01,0-0.01,0-0.01,0c-0.01,0-0.01,0-0.01,0v0.01c-0.33,0.03-0.56,0.55-0.56,0.55l0.37,1.03&#10;&#9;&#9;c-0.08,0.03-0.16,0.07-0.22,0.13l-0.7-0.82c0,0-0.56-0.07-0.76,0.2l0,0c0,0,0,0.01-0.01,0.01c0,0-0.01,0.01-0.01,0.01l0,0&#10;&#9;&#9;c-0.14,0.3,0.2,0.76,0.2,0.76l1.07,0.2c-0.01,0.04-0.01,0.08-0.01,0.12c0,0.05,0.01,0.09,0.02,0.14l-1.06,0.19&#10;&#9;&#9;c0,0-0.34,0.46-0.2,0.76l0,0c0,0,0.01,0.01,0.01,0.01c0,0,0,0.01,0,0.01l0.01,0c0.19,0.27,0.76,0.2,0.76,0.2l0.71-0.83&#10;&#9;&#9;c0.06,0.05,0.13,0.09,0.21,0.12v4.28c-2.6,2.11-5,2.01-5.15,2c-2.13-0.37-2.79-1.28-2.79-1.28L533.3,32.27v-3.46&#10;&#9;&#9;c0.08-0.03,0.14-0.07,0.2-0.12l0.7,0.83c0,0,0.56,0.14,0.78-0.23c0.21-0.37-0.19-0.79-0.19-0.79l-1.07-0.19&#10;&#9;&#9;c0.01-0.04,0.01-0.07,0.01-0.11c0-0.04,0-0.08-0.01-0.11l1.07-0.19c0,0,0.41-0.41,0.19-0.79c-0.21-0.37-0.78-0.23-0.78-0.23&#10;&#9;&#9;l-0.7,0.83c-0.06-0.05-0.12-0.09-0.2-0.11l0.37-1.02c0,0-0.16-0.56-0.59-0.56c-0.43,0-0.59,0.56-0.59,0.56l0.37,1.02&#10;&#9;&#9;c-0.07,0.03-0.14,0.06-0.2,0.11l-0.7-0.83c0,0-0.56-0.14-0.78,0.23c-0.21,0.37,0.19,0.79,0.19,0.79l1.07,0.19&#10;&#9;&#9;c-0.01,0.04-0.01,0.07-0.01,0.11c0,0.04,0,0.08,0.01,0.11l-1.07,0.19c0,0-0.41,0.41-0.19,0.79c0.21,0.37,0.78,0.23,0.78,0.23&#10;&#9;&#9;l0.7-0.83c0.06,0.05,0.13,0.09,0.2,0.12v3.03l-2.36-2.42v-5.96c0.08-0.03,0.14-0.07,0.2-0.12l0.7,0.83c0,0,0.56,0.14,0.78-0.23&#10;&#9;&#9;c0.21-0.37-0.19-0.79-0.19-0.79l-1.07-0.19c0.01-0.04,0.01-0.07,0.01-0.11c0-0.04,0-0.08-0.01-0.11l1.07-0.19&#10;&#9;&#9;c0,0,0.41-0.41,0.19-0.79c-0.21-0.37-0.78-0.23-0.78-0.23l-0.7,0.83c-0.06-0.05-0.12-0.09-0.2-0.11l0.37-1.02&#10;&#9;&#9;c0,0-0.16-0.56-0.59-0.56c-0.43,0-0.59,0.56-0.59,0.56l0.37,1.02c-0.07,0.03-0.14,0.06-0.2,0.11l-0.7-0.83c0,0-0.56-0.14-0.78,0.23&#10;&#9;&#9;c-0.21,0.37,0.19,0.79,0.19,0.79l1.07,0.19c-0.01,0.04-0.01,0.07-0.01,0.11c0,0.04,0,0.08,0.01,0.11l-1.07,0.19&#10;&#9;&#9;c0,0-0.41,0.41-0.19,0.79c0.21,0.37,0.78,0.23,0.78,0.23l0.7-0.83c0.06,0.05,0.13,0.09,0.2,0.12v5.53l-12.3-12.65&#10;&#9;&#9;c0,0-1.86-1.22-4.44-1.22c-2.58,0-4.06,1.19-4.06,1.19l-7.64,7.92v-4.28c0.08-0.03,0.14-0.07,0.2-0.12l0.7,0.83&#10;&#9;&#9;c0,0,0.56,0.14,0.78-0.23c0.21-0.37-0.19-0.79-0.19-0.79l-1.07-0.19c0.01-0.04,0.01-0.07,0.01-0.11c0-0.04,0-0.08-0.01-0.11&#10;&#9;&#9;l1.07-0.19c0,0,0.41-0.41,0.19-0.79c-0.21-0.37-0.78-0.23-0.78-0.23l-0.7,0.83c-0.06-0.05-0.12-0.09-0.2-0.11l0.37-1.02&#10;&#9;&#9;c0,0-0.16-0.56-0.59-0.56c-0.43,0-0.59,0.56-0.59,0.56l0.37,1.02c-0.07,0.03-0.14,0.06-0.2,0.11l-0.7-0.83c0,0-0.56-0.14-0.78,0.23&#10;&#9;&#9;s0.19,0.79,0.19,0.79l1.07,0.19c-0.01,0.04-0.01,0.07-0.01,0.11c0,0.04,0,0.08,0.01,0.11l-1.07,0.19c0,0-0.41,0.41-0.19,0.79&#10;&#9;&#9;s0.78,0.23,0.78,0.23l0.7-0.83c0.06,0.05,0.13,0.09,0.2,0.12v4.71l-12.9,13.39c0,0-2.72,2.33-5.51,2.33&#10;&#9;&#9;c-2.79,0-4.76-1.72-4.76-1.72l-16.56-17.09v-3.46c0.08-0.03,0.14-0.07,0.2-0.12l0.7,0.83c0,0,0.56,0.14,0.78-0.23&#10;&#9;&#9;s-0.19-0.79-0.19-0.79l-1.07-0.19c0.01-0.04,0.01-0.07,0.01-0.11c0-0.04,0-0.08-0.01-0.11l1.07-0.19c0,0,0.41-0.41,0.19-0.79&#10;&#9;&#9;s-0.78-0.23-0.78-0.23l-0.7,0.83c-0.06-0.05-0.12-0.09-0.2-0.11l0.37-1.02c0,0-0.16-0.56-0.59-0.56s-0.59,0.56-0.59,0.56l0.37,1.02&#10;&#9;&#9;c-0.07,0.03-0.14,0.06-0.2,0.11l-0.7-0.83c0,0-0.56-0.14-0.78,0.23s0.19,0.79,0.19,0.79l1.07,0.19c-0.01,0.04-0.01,0.07-0.01,0.11&#10;&#9;&#9;c0,0.04,0,0.08,0.01,0.11l-1.07,0.19c0,0-0.41,0.41-0.19,0.79s0.78,0.23,0.78,0.23l0.7-0.83c0.06,0.05,0.13,0.09,0.2,0.12v3.03&#10;&#9;&#9;l-8.43-8.7c0,0-1.72-1.34-4.39-1.34s-4.56,1.07-4.56,1.07l-7.8,8.12v-5.69c0.08-0.03,0.14-0.07,0.2-0.12l0.7,0.83&#10;&#9;&#9;c0,0,0.56,0.14,0.78-0.23c0.21-0.37-0.19-0.79-0.19-0.79l-1.07-0.19c0.01-0.04,0.01-0.07,0.01-0.11c0-0.04,0-0.08-0.01-0.11&#10;&#9;&#9;l1.07-0.19c0,0,0.41-0.41,0.19-0.79c-0.21-0.37-0.78-0.23-0.78-0.23l-0.7,0.83c-0.06-0.05-0.12-0.09-0.2-0.11l0.37-1.02&#10;&#9;&#9;c0,0-0.16-0.56-0.59-0.56c-0.43,0-0.59,0.56-0.59,0.56l0.37,1.02c-0.07,0.03-0.14,0.06-0.2,0.11l-0.7-0.83c0,0-0.56-0.14-0.78,0.23&#10;&#9;&#9;c-0.21,0.37,0.19,0.79,0.19,0.79l1.07,0.19c-0.01,0.04-0.01,0.07-0.01,0.11c0,0.04,0,0.08,0.01,0.11l-1.07,0.19&#10;&#9;&#9;c0,0-0.41,0.41-0.19,0.79c0.21,0.37,0.78,0.23,0.78,0.23l0.7-0.83c0.06,0.05,0.13,0.09,0.2,0.12v6.12l-18.86,19.62&#10;&#9;&#9;c0,0-0.2,0.15-0.55,0.36v-6.06c0.08-0.03,0.14-0.07,0.2-0.12l0.7,0.83c0,0,0.56,0.14,0.78-0.23c0.21-0.37-0.19-0.79-0.19-0.79&#10;&#9;&#9;l-1.07-0.19c0.01-0.04,0.01-0.07,0.01-0.11c0-0.04,0-0.08-0.01-0.11l1.07-0.19c0,0,0.41-0.41,0.19-0.79&#10;&#9;&#9;c-0.21-0.37-0.78-0.23-0.78-0.23l-0.7,0.83c-0.06-0.05-0.12-0.09-0.2-0.11l0.37-1.02c0,0-0.16-0.56-0.59-0.56&#10;&#9;&#9;c-0.43,0-0.59,0.56-0.59,0.56l0.37,1.02c-0.07,0.03-0.14,0.06-0.2,0.11l-0.7-0.83c0,0-0.56-0.14-0.78,0.23s0.19,0.79,0.19,0.79&#10;&#9;&#9;l1.07,0.19c-0.01,0.04-0.01,0.07-0.01,0.11c0,0.04,0,0.08,0.01,0.11l-1.07,0.19c0,0-0.41,0.41-0.19,0.79s0.78,0.23,0.78,0.23&#10;&#9;&#9;l0.7-0.83c0.06,0.05,0.13,0.09,0.2,0.12v6.29c-0.48,0.25-1.1,0.53-1.82,0.74v-3.43c0.08-0.03,0.14-0.07,0.2-0.12l0.7,0.83&#10;&#9;&#9;c0,0,0.56,0.14,0.78-0.23c0.21-0.37-0.19-0.79-0.19-0.79l-1.07-0.19c0.01-0.04,0.01-0.07,0.01-0.11c0-0.04,0-0.08-0.01-0.11&#10;&#9;&#9;l1.07-0.19c0,0,0.41-0.41,0.19-0.79c-0.21-0.37-0.78-0.23-0.78-0.23l-0.7,0.83c-0.06-0.05-0.12-0.09-0.2-0.11l0.37-1.02&#10;&#9;&#9;c0,0-0.16-0.56-0.59-0.56s-0.59,0.56-0.59,0.56l0.37,1.02c-0.07,0.03-0.14,0.06-0.2,0.11l-0.7-0.83c0,0-0.56-0.14-0.78,0.23&#10;&#9;&#9;c-0.21,0.37,0.19,0.79,0.19,0.79l1.07,0.19c-0.01,0.04-0.01,0.07-0.01,0.11c0,0.04,0,0.08,0.01,0.11l-1.07,0.19&#10;&#9;&#9;c0,0-0.41,0.41-0.19,0.79c0.21,0.37,0.78,0.23,0.78,0.23l0.7-0.83c0.06,0.05,0.13,0.09,0.2,0.12v3.54&#10;&#9;&#9;c-0.48,0.11-0.99,0.18-1.52,0.18c-1.75,0-2.93-0.82-3.5-1.34v-5.49c0.08-0.03,0.14-0.07,0.2-0.12l0.7,0.83c0,0,0.56,0.14,0.78-0.23&#10;&#9;&#9;c0.21-0.37-0.19-0.79-0.19-0.79l-1.07-0.19c0.01-0.04,0.01-0.07,0.01-0.11c0-0.04,0-0.08-0.01-0.11l1.07-0.19&#10;&#9;&#9;c0,0,0.41-0.41,0.19-0.79c-0.21-0.37-0.78-0.23-0.78-0.23l-0.7,0.83c-0.06-0.05-0.12-0.09-0.2-0.11l0.37-1.02&#10;&#9;&#9;c0,0-0.16-0.56-0.59-0.56c-0.43,0-0.59,0.56-0.59,0.56l0.37,1.02c-0.07,0.03-0.14,0.06-0.2,0.11l-0.7-0.83c0,0-0.56-0.14-0.78,0.23&#10;&#9;&#9;c-0.21,0.37,0.19,0.79,0.19,0.79l1.07,0.19c-0.01,0.04-0.01,0.07-0.01,0.11c0,0.04,0,0.08,0.01,0.11l-1.07,0.19&#10;&#9;&#9;c0,0-0.41,0.41-0.19,0.79c0.21,0.37,0.78,0.23,0.78,0.23l0.7-0.83c0.06,0.05,0.13,0.09,0.2,0.12v5.05l-16.59-17.02&#10;&#9;&#9;c0,0-1.86-1.12-4.22-1.12c-0.12,0-0.24,0.01-0.36,0.01v-2.84c0.08-0.03,0.14-0.07,0.2-0.12l0.7,0.83c0,0,0.56,0.14,0.78-0.23&#10;&#9;&#9;s-0.19-0.79-0.19-0.79l-1.07-0.19c0.01-0.04,0.01-0.07,0.01-0.11c0-0.04,0-0.08-0.01-0.11l1.07-0.19c0,0,0.41-0.41,0.19-0.79&#10;&#9;&#9;s-0.78-0.23-0.78-0.23l-0.7,0.83c-0.06-0.05-0.12-0.09-0.2-0.11l0.37-1.02c0,0-0.16-0.56-0.59-0.56s-0.59,0.56-0.59,0.56l0.37,1.02&#10;&#9;&#9;c-0.07,0.03-0.14,0.06-0.2,0.11l-0.7-0.83c0,0-0.56-0.14-0.78,0.23s0.19,0.79,0.19,0.79l1.07,0.19C386,18.55,386,18.59,386,18.63&#10;&#9;&#9;c0,0.04,0,0.08,0.01,0.11l-1.07,0.19c0,0-0.41,0.41-0.19,0.79s0.78,0.23,0.78,0.23l0.7-0.83c0.06,0.05,0.13,0.09,0.2,0.12v2.87&#10;&#9;&#9;c-1.98,0.23-3.45,1.24-3.45,1.24L362.27,44.6c0,0-1.57,1.68-4.97,1.93c-3.4,0.25-4.58-1.32-4.58-1.32l-8.85-9.01v-3.72&#10;&#9;&#9;c0.08-0.03,0.14-0.07,0.2-0.12l0.7,0.83c0,0,0.56,0.14,0.78-0.23s-0.19-0.79-0.19-0.79l-1.07-0.19c0.01-0.04,0.01-0.07,0.01-0.11&#10;&#9;&#9;c0-0.04,0-0.08-0.01-0.11l1.07-0.19c0,0,0.41-0.41,0.19-0.79s-0.78-0.23-0.78-0.23l-0.7,0.83c-0.06-0.05-0.12-0.09-0.2-0.11&#10;&#9;&#9;l0.37-1.02c0,0-0.16-0.56-0.59-0.56c-0.43,0-0.59,0.56-0.59,0.56l0.37,1.02c-0.07,0.03-0.14,0.06-0.2,0.11l-0.7-0.83&#10;&#9;&#9;c0,0-0.56-0.14-0.78,0.23c-0.21,0.37,0.19,0.79,0.19,0.79l1.07,0.19c-0.01,0.04-0.01,0.07-0.01,0.11c0,0.04,0,0.08,0.01,0.11&#10;&#9;&#9;l-1.07,0.19c0,0-0.41,0.41-0.19,0.79c0.21,0.37,0.78,0.23,0.78,0.23l0.7-0.83c0.06,0.05,0.13,0.09,0.2,0.12v3.3l-2.11-2.15&#10;&#9;&#9;c0,0-0.19-0.19-0.55-0.42v-4.8c0.08-0.03,0.14-0.07,0.2-0.12l0.7,0.83c0,0,0.56,0.14,0.78-0.23s-0.19-0.79-0.19-0.79l-1.07-0.19&#10;&#9;&#9;c0.01-0.04,0.01-0.07,0.01-0.11c0-0.04,0-0.08-0.01-0.11l1.07-0.19c0,0,0.41-0.41,0.19-0.79s-0.78-0.23-0.78-0.23l-0.7,0.83&#10;&#9;&#9;c-0.06-0.05-0.12-0.09-0.2-0.11l0.37-1.02c0,0-0.16-0.56-0.59-0.56c-0.43,0-0.59,0.56-0.59,0.56l0.37,1.02&#10;&#9;&#9;c-0.07,0.03-0.14,0.06-0.2,0.11l-0.7-0.83c0,0-0.56-0.14-0.78,0.23c-0.21,0.37,0.19,0.79,0.19,0.79l1.07,0.19&#10;&#9;&#9;c-0.01,0.04-0.01,0.07-0.01,0.11c0,0.04,0,0.08,0.01,0.11l-1.07,0.19c0,0-0.41,0.41-0.19,0.79c0.21,0.37,0.78,0.23,0.78,0.23&#10;&#9;&#9;l0.7-0.83c0.06,0.05,0.13,0.09,0.2,0.12v4.55c-0.69-0.37-1.74-0.76-3.14-0.76c-2.67,0-4.2,1.14-4.2,1.14s-5.9,6.3-8.37,8.76v-3.96&#10;&#9;&#9;c0.08-0.03,0.14-0.07,0.2-0.12l0.7,0.83c0,0,0.56,0.14,0.78-0.23c0.21-0.37-0.19-0.79-0.19-0.79l-1.07-0.19&#10;&#9;&#9;c0.01-0.04,0.01-0.07,0.01-0.11c0-0.04,0-0.08-0.01-0.11l1.07-0.19c0,0,0.41-0.41,0.19-0.79c-0.21-0.37-0.78-0.23-0.78-0.23&#10;&#9;&#9;l-0.7,0.83c-0.06-0.05-0.12-0.09-0.2-0.11l0.37-1.02c0,0-0.16-0.56-0.59-0.56c-0.43,0-0.59,0.56-0.59,0.56l0.37,1.02&#10;&#9;&#9;c-0.07,0.03-0.14,0.06-0.2,0.11l-0.7-0.83c0,0-0.56-0.14-0.78,0.23c-0.21,0.37,0.19,0.79,0.19,0.79l1.07,0.19&#10;&#9;&#9;c-0.01,0.04-0.01,0.07-0.01,0.11c0,0.04,0,0.08,0.01,0.11l-1.07,0.19c0,0-0.41,0.41-0.19,0.79c0.21,0.37,0.78,0.23,0.78,0.23&#10;&#9;&#9;l0.7-0.83c0.06,0.05,0.13,0.09,0.2,0.12v4.37c-0.06,0.06-0.13,0.12-0.18,0.18c-1.54,1.46-3.74,1.68-4.53,1.71&#10;&#9;&#9;c-2.37-0.23-2.92-1.16-2.92-1.16l-16-17.06c0,0-2-4.39-5.34-4.41c-0.13,0-0.24,0-0.36,0.01v-2.64c0.08-0.03,0.16-0.07,0.22-0.13&#10;&#9;&#9;l0.7,0.82c0,0,0.56,0.07,0.76-0.2l0,0c0,0,0-0.01,0.01-0.01c0,0,0.01-0.01,0.01-0.01l0,0c0.14-0.3-0.2-0.76-0.2-0.76l-1.07-0.2&#10;&#9;&#9;c0.01-0.04,0.01-0.08,0.01-0.12c0-0.05-0.01-0.09-0.02-0.14l1.06-0.19c0,0,0.34-0.46,0.2-0.76l0,0c0,0-0.01-0.01-0.01-0.01&#10;&#9;&#9;c0,0,0-0.01,0-0.01l0,0c-0.19-0.27-0.76-0.2-0.76-0.2l-0.71,0.83c-0.06-0.05-0.14-0.1-0.22-0.12l0.36-1.02c0,0-0.22-0.52-0.56-0.55&#10;&#9;&#9;v-0.01c-0.01,0-0.01,0-0.01,0c-0.01,0-0.01,0-0.01,0v0.01c-0.33,0.03-0.56,0.55-0.56,0.55l0.37,1.03&#10;&#9;&#9;c-0.08,0.03-0.16,0.07-0.22,0.13l-0.7-0.82c0,0-0.56-0.07-0.76,0.2l0,0c0,0,0,0.01,0,0.01c0,0-0.01,0.01-0.01,0.01l0,0&#10;&#9;&#9;c-0.14,0.3,0.2,0.76,0.2,0.76l1.07,0.2c-0.01,0.04-0.01,0.08-0.01,0.12c0,0.05,0.01,0.09,0.02,0.14l-1.06,0.19&#10;&#9;&#9;c0,0-0.34,0.46-0.2,0.76l-0.01,0c0,0,0.01,0.01,0.01,0.01c0,0,0,0.01,0.01,0.01l0,0c0.19,0.27,0.76,0.2,0.76,0.2l0.71-0.83&#10;&#9;&#9;c0.06,0.05,0.13,0.09,0.21,0.12v2.65c-2.67,0.15-3.27,1.15-3.27,1.15s-19.08,19.51-20.5,20.96c-1.42,1.45-2.65,1.75-5.36,2.33&#10;&#9;&#9;c-2.71,0.58-5.33-2.09-5.33-2.09s-4.1-4.33-8.09-7.85v-4.21c0.08-0.03,0.16-0.07,0.22-0.13l0.7,0.82c0,0,0.56,0.07,0.76-0.2l0,0&#10;&#9;&#9;c0,0,0-0.01,0-0.01c0,0,0.01-0.01,0.01-0.01l0,0c0.14-0.3-0.2-0.76-0.2-0.76l-1.07-0.2c0.01-0.04,0.01-0.08,0.01-0.12&#10;&#9;&#9;c0-0.05-0.01-0.09-0.02-0.14l1.06-0.19c0,0,0.34-0.46,0.2-0.76l0,0c0,0-0.01-0.01-0.01-0.01c0,0,0-0.01,0-0.01l0,0&#10;&#9;&#9;c-0.19-0.27-0.76-0.2-0.76-0.2l-0.71,0.83c-0.06-0.05-0.14-0.1-0.22-0.12l0.36-1.02c0,0-0.22-0.52-0.56-0.55v-0.01&#10;&#9;&#9;c-0.01,0-0.01,0-0.01,0c-0.01,0-0.01,0-0.01,0v0.01c-0.33,0.03-0.56,0.55-0.56,0.55l0.37,1.03c-0.08,0.03-0.16,0.07-0.22,0.13&#10;&#9;&#9;l-0.7-0.82c0,0-0.56-0.07-0.76,0.2l0,0c0,0,0,0.01,0,0.01c0,0-0.01,0.01-0.01,0.01l0,0c-0.14,0.3,0.2,0.76,0.2,0.76l1.07,0.2&#10;&#9;&#9;c-0.01,0.04-0.01,0.08-0.01,0.12c0,0.05,0.01,0.09,0.02,0.14l-1.06,0.19c0,0-0.34,0.46-0.2,0.76l0,0c0,0,0.01,0.01,0.01,0.01&#10;&#9;&#9;c0,0,0,0.01,0,0.01l0,0c0.19,0.27,0.76,0.2,0.76,0.2l0.71-0.83c0.06,0.05,0.13,0.09,0.21,0.12v3.84c-0.91-0.79-1.81-1.53-2.64-2.16&#10;&#9;&#9;v-5.35c0.08-0.03,0.16-0.07,0.22-0.13l0.7,0.82c0,0,0.56,0.07,0.76-0.2l0,0c0,0,0-0.01,0-0.01c0,0,0.01-0.01,0.01-0.01l0,0&#10;&#9;&#9;c0.14-0.3-0.2-0.76-0.2-0.76l-1.07-0.2c0.01-0.04,0.01-0.08,0.01-0.12c0-0.05-0.01-0.09-0.02-0.14l1.06-0.19&#10;&#9;&#9;c0,0,0.34-0.46,0.2-0.76l0,0c0,0-0.01-0.01-0.01-0.01c0,0,0-0.01,0-0.01l0,0c-0.19-0.27-0.76-0.2-0.76-0.2l-0.71,0.83&#10;&#9;&#9;c-0.06-0.05-0.14-0.1-0.22-0.12l0.36-1.02c0,0-0.22-0.52-0.56-0.55v-0.01c-0.01,0-0.01,0-0.01,0c-0.01,0-0.01,0-0.01,0v0.01&#10;&#9;&#9;c-0.33,0.03-0.56,0.55-0.56,0.55l0.37,1.03c-0.08,0.03-0.16,0.07-0.22,0.13l-0.7-0.82c0,0-0.56-0.07-0.76,0.2l0,0&#10;&#9;&#9;c0,0,0,0.01,0,0.01c0,0-0.01,0.01-0.01,0.01l0,0c-0.14,0.3,0.2,0.76,0.2,0.76l1.07,0.2c-0.01,0.04-0.01,0.08-0.01,0.12&#10;&#9;&#9;c0,0.05,0.01,0.09,0.02,0.14l-1.06,0.19c0,0-0.34,0.46-0.2,0.76l0,0c0,0,0.01,0.01,0.01,0.01c0,0,0,0.01,0,0.01l0,0&#10;&#9;&#9;c0.19,0.27,0.76,0.2,0.76,0.2l0.71-0.83c0.06,0.05,0.13,0.09,0.21,0.12v5.04c-1.33-0.96-2.46-1.57-3.16-1.57&#10;&#9;&#9;c-3.14,0-4.61,1.58-4.61,1.58s-4.38,4.63-7.4,7.76c-0.19,0.19-0.37,0.37-0.56,0.54v-3.93c0.08-0.03,0.16-0.07,0.22-0.13l0.7,0.82&#10;&#9;&#9;c0,0,0.56,0.07,0.76-0.2l0,0c0,0,0-0.01,0-0.01c0,0,0.01-0.01,0.01-0.01l0,0c0.14-0.3-0.2-0.76-0.2-0.76l-1.07-0.2&#10;&#9;&#9;c0.01-0.04,0.01-0.08,0.01-0.12c0-0.05-0.01-0.09-0.02-0.14l1.06-0.19c0,0,0.34-0.46,0.2-0.76l0,0c0,0-0.01-0.01-0.01-0.01&#10;&#9;&#9;c0,0,0-0.01,0-0.01l0,0c-0.19-0.27-0.76-0.2-0.76-0.2l-0.71,0.83c-0.06-0.05-0.14-0.1-0.22-0.12l0.36-1.02c0,0-0.22-0.52-0.56-0.55&#10;&#9;&#9;v-0.01c-0.01,0-0.01,0-0.01,0c-0.01,0-0.01,0-0.01,0v0.01c-0.33,0.03-0.56,0.55-0.56,0.55l0.37,1.03&#10;&#9;&#9;c-0.08,0.03-0.16,0.07-0.22,0.13l-0.7-0.82c0,0-0.56-0.07-0.76,0.2l0,0c0,0,0,0.01,0,0.01c0,0-0.01,0.01-0.01,0.01l0,0&#10;&#9;&#9;c-0.14,0.3,0.2,0.76,0.2,0.76l1.07,0.2c-0.01,0.04-0.01,0.08-0.01,0.12c0,0.05,0.01,0.09,0.02,0.14l-1.06,0.19&#10;&#9;&#9;c0,0-0.34,0.46-0.2,0.76l0,0c0,0,0.01,0.01,0.01,0.01c0,0,0,0.01,0,0.01l0,0c0.19,0.27,0.76,0.2,0.76,0.2l0.71-0.83&#10;&#9;&#9;c0.06,0.05,0.13,0.09,0.21,0.12v4.28c-2.6,2.11-5,2.01-5.15,2c-2.13-0.37-2.79-1.28-2.79-1.28l-10.32-10.61v-3.46&#10;&#9;&#9;c0.08-0.03,0.14-0.07,0.2-0.12l0.7,0.83c0,0,0.56,0.14,0.78-0.23c0.21-0.37-0.19-0.79-0.19-0.79l-1.07-0.19&#10;&#9;&#9;c0.01-0.04,0.01-0.07,0.01-0.11c0-0.04,0-0.08-0.01-0.11l1.07-0.19c0,0,0.41-0.41,0.19-0.79c-0.21-0.37-0.78-0.23-0.78-0.23&#10;&#9;&#9;l-0.7,0.83c-0.06-0.05-0.12-0.09-0.2-0.11l0.37-1.02c0,0-0.16-0.56-0.59-0.56c-0.43,0-0.59,0.56-0.59,0.56l0.37,1.02&#10;&#9;&#9;c-0.07,0.03-0.14,0.06-0.2,0.11l-0.7-0.83c0,0-0.56-0.14-0.78,0.23c-0.21,0.37,0.19,0.79,0.19,0.79l1.07,0.19&#10;&#9;&#9;c-0.01,0.04-0.01,0.07-0.01,0.11c0,0.04,0,0.08,0.01,0.11l-1.07,0.19c0,0-0.41,0.41-0.19,0.79c0.21,0.37,0.78,0.23,0.78,0.23&#10;&#9;&#9;l0.7-0.83c0.06,0.05,0.13,0.09,0.2,0.12v3.03l-2.36-2.42v-5.96c0.08-0.03,0.14-0.07,0.2-0.12l0.7,0.83c0,0,0.56,0.14,0.78-0.23&#10;&#9;&#9;c0.21-0.37-0.19-0.79-0.19-0.79l-1.07-0.19c0.01-0.04,0.01-0.07,0.01-0.11c0-0.04,0-0.08-0.01-0.11l1.07-0.19&#10;&#9;&#9;c0,0,0.41-0.41,0.19-0.79c-0.21-0.37-0.78-0.23-0.78-0.23l-0.7,0.83c-0.06-0.05-0.12-0.09-0.2-0.11l0.37-1.02&#10;&#9;&#9;c0,0-0.16-0.56-0.59-0.56c-0.43,0-0.59,0.56-0.59,0.56l0.37,1.02c-0.07,0.03-0.14,0.06-0.2,0.11l-0.7-0.83c0,0-0.56-0.14-0.78,0.23&#10;&#9;&#9;c-0.21,0.37,0.19,0.79,0.19,0.79l1.07,0.19c-0.01,0.04-0.01,0.07-0.01,0.11c0,0.04,0,0.08,0.01,0.11l-1.07,0.19&#10;&#9;&#9;c0,0-0.41,0.41-0.19,0.79c0.21,0.37,0.78,0.23,0.78,0.23l0.7-0.83c0.06,0.05,0.13,0.09,0.2,0.12v5.53l-12.3-12.65&#10;&#9;&#9;c0,0-1.86-1.22-4.44-1.22c-2.58,0-4.06,1.19-4.06,1.19l-7.64,7.92v-4.28c0.08-0.03,0.14-0.07,0.2-0.12l0.7,0.83&#10;&#9;&#9;c0,0,0.56,0.14,0.78-0.23c0.21-0.37-0.19-0.79-0.19-0.79l-1.07-0.19c0.01-0.04,0.01-0.07,0.01-0.11c0-0.04,0-0.08-0.01-0.11&#10;&#9;&#9;l1.07-0.19c0,0,0.41-0.41,0.19-0.79c-0.21-0.37-0.78-0.23-0.78-0.23l-0.7,0.83c-0.06-0.05-0.12-0.09-0.2-0.11l0.37-1.02&#10;&#9;&#9;c0,0-0.16-0.56-0.59-0.56c-0.43,0-0.59,0.56-0.59,0.56l0.37,1.02c-0.07,0.03-0.14,0.06-0.2,0.11l-0.7-0.83c0,0-0.56-0.14-0.78,0.23&#10;&#9;&#9;c-0.21,0.37,0.19,0.79,0.19,0.79l1.07,0.19c-0.01,0.04-0.01,0.07-0.01,0.11c0,0.04,0,0.08,0.01,0.11l-1.07,0.19&#10;&#9;&#9;c0,0-0.41,0.41-0.19,0.79c0.21,0.37,0.78,0.23,0.78,0.23l0.7-0.83c0.06,0.05,0.13,0.09,0.2,0.12v4.71l-12.9,13.39&#10;&#9;&#9;c0,0-2.72,2.33-5.51,2.33c-2.79,0-4.76-1.72-4.76-1.72L142.3,21.58v-3.46c0.08-0.03,0.14-0.07,0.2-0.12l0.7,0.83&#10;&#9;&#9;c0,0,0.56,0.14,0.78-0.23s-0.19-0.79-0.19-0.79l-1.07-0.19c0.01-0.04,0.01-0.07,0.01-0.11c0-0.04,0-0.08-0.01-0.11l1.07-0.19&#10;&#9;&#9;c0,0,0.41-0.41,0.19-0.79s-0.78-0.23-0.78-0.23l-0.7,0.83c-0.06-0.05-0.12-0.09-0.2-0.11l0.37-1.02c0,0-0.16-0.56-0.59-0.56&#10;&#9;&#9;s-0.59,0.56-0.59,0.56l0.37,1.02c-0.07,0.03-0.14,0.06-0.2,0.11l-0.7-0.83c0,0-0.56-0.14-0.78,0.23s0.19,0.79,0.19,0.79l1.07,0.19&#10;&#9;&#9;c-0.01,0.04-0.01,0.07-0.01,0.11c0,0.04,0,0.08,0.01,0.11l-1.07,0.19c0,0-0.41,0.41-0.19,0.79s0.78,0.23,0.78,0.23l0.7-0.83&#10;&#9;&#9;c0.06,0.05,0.13,0.09,0.2,0.12v3.03l-8.43-8.7c0,0-1.72-1.34-4.39-1.34c-2.67,0-4.56,1.07-4.56,1.07l-7.8,8.12v-5.69&#10;&#9;&#9;c0.08-0.03,0.14-0.07,0.2-0.12l0.7,0.83c0,0,0.56,0.14,0.78-0.23c0.21-0.37-0.19-0.79-0.19-0.79l-1.07-0.19&#10;&#9;&#9;c0.01-0.04,0.01-0.07,0.01-0.11c0-0.04,0-0.08-0.01-0.11l1.07-0.19c0,0,0.41-0.41,0.19-0.79c-0.21-0.37-0.78-0.23-0.78-0.23&#10;&#9;&#9;l-0.7,0.83c-0.06-0.05-0.12-0.09-0.2-0.11l0.37-1.02c0,0-0.16-0.56-0.59-0.56c-0.43,0-0.59,0.56-0.59,0.56l0.37,1.02&#10;&#9;&#9;c-0.07,0.03-0.14,0.06-0.2,0.11l-0.7-0.83c0,0-0.56-0.14-0.78,0.23c-0.21,0.37,0.19,0.79,0.19,0.79l1.07,0.19&#10;&#9;&#9;c-0.01,0.04-0.01,0.07-0.01,0.11c0,0.04,0,0.08,0.01,0.11l-1.07,0.19c0,0-0.41,0.41-0.19,0.79c0.21,0.37,0.78,0.23,0.78,0.23&#10;&#9;&#9;l0.7-0.83c0.06,0.05,0.13,0.09,0.2,0.12v6.12L97.44,40.36c0,0-0.2,0.15-0.55,0.36v-6.06c0.08-0.03,0.14-0.07,0.2-0.12l0.7,0.83&#10;&#9;&#9;c0,0,0.56,0.14,0.78-0.23c0.21-0.37-0.19-0.79-0.19-0.79l-1.07-0.19c0.01-0.04,0.01-0.07,0.01-0.11c0-0.04,0-0.08-0.01-0.11&#10;&#9;&#9;l1.07-0.19c0,0,0.41-0.41,0.19-0.79c-0.21-0.37-0.78-0.23-0.78-0.23l-0.7,0.83c-0.06-0.05-0.12-0.09-0.2-0.11l0.37-1.02&#10;&#9;&#9;c0,0-0.16-0.56-0.59-0.56c-0.43,0-0.59,0.56-0.59,0.56l0.37,1.02c-0.07,0.03-0.14,0.06-0.2,0.11l-0.7-0.83c0,0-0.56-0.14-0.78,0.23&#10;&#9;&#9;c-0.21,0.37,0.19,0.79,0.19,0.79l1.07,0.19c-0.01,0.04-0.01,0.07-0.01,0.11c0,0.04,0,0.08,0.01,0.11l-1.07,0.19&#10;&#9;&#9;c0,0-0.41,0.41-0.19,0.79c0.21,0.37,0.78,0.23,0.78,0.23l0.7-0.83c0.06,0.05,0.13,0.09,0.2,0.12v6.29&#10;&#9;&#9;c-0.48,0.25-1.1,0.53-1.82,0.74v-3.43c0.08-0.03,0.14-0.07,0.2-0.12l0.7,0.83c0,0,0.56,0.14,0.78-0.23&#10;&#9;&#9;c0.21-0.37-0.19-0.79-0.19-0.79l-1.07-0.19c0.01-0.04,0.01-0.07,0.01-0.11c0-0.04,0-0.08-0.01-0.11l1.07-0.19&#10;&#9;&#9;c0,0,0.41-0.41,0.19-0.79c-0.21-0.37-0.78-0.23-0.78-0.23l-0.7,0.83c-0.06-0.05-0.12-0.09-0.2-0.11l0.37-1.02&#10;&#9;&#9;c0,0-0.16-0.56-0.59-0.56c-0.43,0-0.59,0.56-0.59,0.56l0.37,1.02c-0.07,0.03-0.14,0.06-0.2,0.11l-0.7-0.83c0,0-0.56-0.14-0.78,0.23&#10;&#9;&#9;c-0.21,0.37,0.19,0.79,0.19,0.79l1.07,0.19c-0.01,0.04-0.01,0.07-0.01,0.11c0,0.04,0,0.08,0.01,0.11l-1.07,0.19&#10;&#9;&#9;c0,0-0.41,0.41-0.19,0.79c0.21,0.37,0.78,0.23,0.78,0.23l0.7-0.83c0.06,0.05,0.13,0.09,0.2,0.12v3.54&#10;&#9;&#9;c-0.48,0.11-0.99,0.18-1.52,0.18c-1.75,0-2.93-0.82-3.5-1.34v-5.49c0.08-0.03,0.14-0.07,0.2-0.12l0.7,0.83c0,0,0.56,0.14,0.78-0.23&#10;&#9;&#9;c0.21-0.37-0.19-0.79-0.19-0.79l-1.07-0.19c0.01-0.04,0.01-0.07,0.01-0.11c0-0.04,0-0.08-0.01-0.11l1.07-0.19&#10;&#9;&#9;c0,0,0.41-0.41,0.19-0.79c-0.21-0.37-0.78-0.23-0.78-0.23l-0.7,0.83c-0.06-0.05-0.12-0.09-0.2-0.11l0.37-1.02&#10;&#9;&#9;c0,0-0.16-0.56-0.59-0.56s-0.59,0.56-0.59,0.56l0.37,1.02c-0.07,0.03-0.14,0.06-0.2,0.11l-0.7-0.83c0,0-0.56-0.14-0.78,0.23&#10;&#9;&#9;c-0.21,0.37,0.19,0.79,0.19,0.79l1.07,0.19c-0.01,0.04-0.01,0.07-0.01,0.11c0,0.04,0,0.08,0.01,0.11l-1.07,0.19&#10;&#9;&#9;c0,0-0.41,0.41-0.19,0.79c0.21,0.37,0.78,0.23,0.78,0.23l0.7-0.83c0.06,0.05,0.13,0.09,0.2,0.12v5.05L72.2,23.18&#10;&#9;&#9;c0,0-1.86-1.12-4.22-1.12c-0.12,0-0.24,0.01-0.36,0.01v-2.84c0.08-0.03,0.14-0.07,0.2-0.12l0.7,0.83c0,0,0.56,0.14,0.78-0.23&#10;&#9;&#9;c0.21-0.37-0.19-0.79-0.19-0.79l-1.07-0.19c0.01-0.04,0.01-0.07,0.01-0.11c0-0.04,0-0.08-0.01-0.11l1.07-0.19&#10;&#9;&#9;c0,0,0.41-0.41,0.19-0.79c-0.21-0.37-0.78-0.23-0.78-0.23l-0.7,0.83c-0.06-0.05-0.12-0.09-0.2-0.11L68,17.01&#10;&#9;&#9;c0,0-0.16-0.56-0.59-0.56s-0.59,0.56-0.59,0.56l0.37,1.02c-0.07,0.03-0.14,0.06-0.2,0.11l-0.7-0.83c0,0-0.56-0.14-0.78,0.23&#10;&#9;&#9;c-0.21,0.37,0.19,0.79,0.19,0.79l1.07,0.19c-0.01,0.04-0.01,0.07-0.01,0.11c0,0.04,0,0.08,0.01,0.11l-1.07,0.19&#10;&#9;&#9;c0,0-0.41,0.41-0.19,0.79c0.21,0.37,0.78,0.23,0.78,0.23l0.7-0.83c0.06,0.05,0.13,0.09,0.2,0.12v2.87&#10;&#9;&#9;c-1.98,0.23-3.45,1.24-3.45,1.24L43.04,44.6c0,0-1.57,1.68-4.97,1.93c-3.4,0.25-4.58-1.32-4.58-1.32l-8.85-9.01v-3.72&#10;&#9;&#9;c0.08-0.03,0.14-0.07,0.2-0.12l0.7,0.83c0,0,0.56,0.14,0.78-0.23c0.21-0.37-0.19-0.79-0.19-0.79l-1.07-0.19&#10;&#9;&#9;c0.01-0.04,0.01-0.07,0.01-0.11c0-0.04,0-0.08-0.01-0.11l1.07-0.19c0,0,0.41-0.41,0.19-0.79c-0.21-0.37-0.78-0.23-0.78-0.23&#10;&#9;&#9;l-0.7,0.83c-0.06-0.05-0.12-0.09-0.2-0.11l0.37-1.02c0,0-0.16-0.56-0.59-0.56s-0.59,0.56-0.59,0.56l0.37,1.02&#10;&#9;&#9;c-0.07,0.03-0.14,0.06-0.2,0.11l-0.7-0.83c0,0-0.56-0.14-0.78,0.23c-0.21,0.37,0.19,0.79,0.19,0.79l1.07,0.19&#10;&#9;&#9;c-0.01,0.04-0.01,0.07-0.01,0.11c0,0.04,0,0.08,0.01,0.11l-1.07,0.19c0,0-0.41,0.41-0.19,0.79c0.21,0.37,0.78,0.23,0.78,0.23&#10;&#9;&#9;l0.7-0.83c0.06,0.05,0.13,0.09,0.2,0.12v3.3l-2.11-2.15c0,0-0.19-0.19-0.55-0.42v-4.8c0.08-0.03,0.14-0.07,0.2-0.12l0.7,0.83&#10;&#9;&#9;c0,0,0.56,0.14,0.78-0.23c0.21-0.37-0.19-0.79-0.19-0.79l-1.07-0.19C21.99,27.88,22,27.84,22,27.8c0-0.04,0-0.08-0.01-0.11&#10;&#9;&#9;l1.07-0.19c0,0,0.41-0.41,0.19-0.79c-0.21-0.37-0.78-0.23-0.78-0.23l-0.7,0.83c-0.06-0.05-0.12-0.09-0.2-0.11l0.37-1.02&#10;&#9;&#9;c0,0-0.16-0.56-0.59-0.56s-0.59,0.56-0.59,0.56l0.37,1.02c-0.07,0.03-0.14,0.06-0.2,0.11l-0.7-0.83c0,0-0.56-0.14-0.78,0.23&#10;&#9;&#9;c-0.21,0.37,0.19,0.79,0.19,0.79l1.07,0.19c-0.01,0.04-0.01,0.07-0.01,0.11c0,0.04,0,0.08,0.01,0.11l-1.07,0.19&#10;&#9;&#9;c0,0-0.41,0.41-0.19,0.79c0.21,0.37,0.78,0.23,0.78,0.23l0.7-0.83c0.06,0.05,0.13,0.09,0.2,0.12v4.55&#10;&#9;&#9;c-0.69-0.37-1.74-0.76-3.14-0.76c-2.67,0-4.2,1.14-4.2,1.14s-5.9,6.3-8.37,8.76v-3.96c0.08-0.03,0.14-0.07,0.2-0.12l0.7,0.83&#10;&#9;&#9;c0,0,0.56,0.14,0.78-0.23c0.21-0.37-0.19-0.79-0.19-0.79l-1.07-0.19c0.01-0.04,0.01-0.07,0.01-0.11c0-0.04,0-0.08-0.01-0.11&#10;&#9;&#9;l1.07-0.19c0,0,0.41-0.41,0.19-0.79c-0.21-0.37-0.78-0.23-0.78-0.23l-0.7,0.83c-0.06-0.05-0.12-0.09-0.2-0.11l0.37-1.02&#10;&#9;&#9;c0,0-0.16-0.56-0.59-0.56c-0.43,0-0.59,0.56-0.59,0.56l0.37,1.02c-0.07,0.03-0.14,0.06-0.2,0.11l-0.7-0.83c0,0-0.56-0.14-0.78,0.23&#10;&#9;&#9;c-0.21,0.37,0.19,0.79,0.19,0.79l1.07,0.19c-0.01,0.04-0.01,0.07-0.01,0.11c0,0.04,0,0.08,0.01,0.11l-1.07,0.19&#10;&#9;&#9;c0,0-0.41,0.41-0.19,0.79c0.21,0.37,0.78,0.23,0.78,0.23l0.7-0.83c0.06,0.05,0.13,0.09,0.2,0.12v4.37&#10;&#9;&#9;c-0.06,0.06-0.13,0.12-0.18,0.18C2.93,44.51,0,44.41,0,44.41v78.91h229.09v0l90.14-0.17v0.17h229.09v0l91.57-0.17V41.66&#10;&#9;&#9;C636.57,41.66,635.85,40.45,635.85,40.45z" id="el_Mn1mgVQG-j"/>
</g></g>
</svg>